<svg width="34" height="37" viewBox="0 0 34 37" fill="none" xmlns="http://www.w3.org/2000/svg">
<path d="M4.96747 23.3454C5.22857 23.2555 5.36735 22.9709 5.27744 22.7098C3.02146 16.1579 6.39079 8.99863 12.8131 6.49675L13.5249 8.56398C13.5849 8.73824 13.7359 8.86536 13.9179 8.89478C14.0998 8.9242 14.2832 8.85115 14.3951 8.70469L19.6683 1.80064C19.8021 1.62546 19.8054 1.38332 19.6764 1.20457C19.5474 1.02581 19.3166 0.952618 19.1081 1.02438L12.2686 3.37944C12.2534 3.38467 12.2384 3.39063 12.2238 3.3973C8.20268 4.79597 4.99765 7.70458 3.13101 11.5169C2.20291 13.3998 1.65792 15.447 1.52768 17.5401C1.39742 19.6334 1.68459 21.731 2.37259 23.7115C2.46303 23.9718 2.74709 24.1099 3.00769 24.0202L4.96747 23.3454ZM22.1238 30.5318L21.6307 29.0997C21.5727 28.9312 21.4293 28.8063 21.2544 28.7719C21.0796 28.7375 20.8996 28.7988 20.7821 28.9327L15.2881 35.1957C15.1386 35.3661 15.1224 35.6158 15.2488 35.804C15.3752 35.9923 15.6124 36.072 15.8267 35.9981L22.6663 33.6431L22.6676 33.6426C31.0267 30.739 35.49 21.6018 32.6294 13.2942C32.5395 13.0331 32.255 12.8943 31.9939 12.9842L30.0341 13.659C29.773 13.7489 29.6342 14.0334 29.7241 14.2945C31.9776 20.84 28.5836 28.0081 22.1238 30.5318Z" fill="white" stroke="white" stroke-linejoin="round"/>
</svg>