<svg width="29" height="24" viewBox="0 0 29 24" fill="none" xmlns="http://www.w3.org/2000/svg">
<path d="M28.6907 8.77159C28.5549 8.59302 28.3808 8.44863 28.1817 8.34952C27.9826 8.25042 27.7639 8.19924 27.5424 8.19994H23.5242V4.95412C23.5237 4.57468 23.3758 4.2109 23.1128 3.94259C22.8498 3.67429 22.4932 3.52337 22.1213 3.52294H13.848L12.7693 0.880598C12.6631 0.619517 12.4834 0.396459 12.2529 0.239692C12.0224 0.0829238 11.7514 -0.000496644 11.4744 2.22447e-06H1.40282C1.0309 0.000444737 0.674339 0.151372 0.411354 0.419675C0.148369 0.687978 0.000433741 1.05175 0 1.43119V24H25.5365L28.9557 10.0467C29.0101 9.8276 29.0145 9.59873 28.9685 9.37768C28.9226 9.15662 28.8275 8.94927 28.6907 8.77159ZM1.94237 22.0184V1.98165H11.1147L12.5532 5.50459H21.5819V8.19994H7.38021C7.0552 8.19951 6.73941 8.31014 6.48321 8.51419C6.22702 8.71823 6.04518 9.00393 5.96672 9.3257L2.85668 22.0184H1.94237ZM24.02 22.0184H4.85884L7.75934 10.1816H26.9205L24.02 22.0184Z" fill="white"/>
</svg>
