<svg width="34" height="31" viewBox="0 0 34 31" fill="none" xmlns="http://www.w3.org/2000/svg">
<path fill-rule="evenodd" clip-rule="evenodd" d="M9.1293 0C9.7301 0 10.2171 0.447715 10.2171 1V7.39216L23.5058 7.39216V1C23.5058 0.447715 23.9929 0 24.5937 0C25.1945 0 25.6815 0.447715 25.6815 1V7.39216H32.6351C33.2359 7.39216 33.723 7.83987 33.723 8.39216C33.723 8.94444 33.2359 9.39216 32.6351 9.39216H25.6815V21.6078H32.6351C33.2359 21.6078 33.723 22.0556 33.723 22.6078C33.723 23.1601 33.2359 23.6078 32.6351 23.6078H25.6815V30C25.6815 30.5523 25.1945 31 24.5937 31C23.9929 31 23.5058 30.5523 23.5058 30V23.6078H10.2171V30C10.2171 30.5523 9.7301 31 9.1293 31C8.52851 31 8.04147 30.5523 8.04147 30V23.6078H1.08784C0.487042 23.6078 0 23.1601 0 22.6078C0 22.0556 0.487042 21.6078 1.08784 21.6078H8.04147V9.39216H1.08784C0.487042 9.39216 0 8.94444 0 8.39216C0 7.83987 0.487042 7.39216 1.08784 7.39216H8.04147V1C8.04147 0.447715 8.52851 0 9.1293 0ZM10.2171 9.39216V21.6078H23.5058V9.39216L10.2171 9.39216Z" fill="white"/>
</svg>
