<svg width="26" height="32" viewBox="0 0 26 32" fill="none" xmlns="http://www.w3.org/2000/svg">
<path d="M0.469445 4.24405C0.331019 4.31908 0.192593 4.46289 0.12037 4.61296C0 4.85682 0 4.96311 0 15.993C0 27.1103 0 27.1291 0.126389 27.3792C0.252778 27.6418 0.607871 27.8669 0.89676 27.8732C1.08333 27.8732 8.26945 25.5784 8.56435 25.4221C8.72685 25.3408 8.82917 25.222 8.91343 25.0407C9.02176 24.7843 9.02778 24.4967 9.02778 15.993C9.02778 7.48922 9.02176 7.2016 8.91343 6.94523C8.82917 6.76391 8.72685 6.6451 8.56435 6.56382C8.23935 6.38874 1.0713 4.11274 0.866667 4.11274C0.770371 4.11899 0.589815 4.17527 0.469445 4.24405ZM6.9213 7.95193L7.19213 8.03321V23.9465L4.50185 24.8093L1.80556 25.666V6.31996L4.23102 7.0953C5.56111 7.52049 6.77083 7.90191 6.9213 7.95193Z" fill="white"/>
<path d="M21.2454 5.29451C19.2412 5.93854 17.5139 6.51379 17.4056 6.57632C17.2792 6.6451 17.1588 6.78266 17.0866 6.94523C16.9782 7.20159 16.9722 7.49547 16.9722 15.993C16.9722 24.4967 16.9782 24.7843 17.0866 25.0407C17.1708 25.222 17.2731 25.3408 17.4356 25.4221C17.7426 25.5847 24.9167 27.8732 25.1213 27.8732C25.3981 27.8732 25.7472 27.6418 25.8796 27.373C26 27.1291 26 27.0291 26 15.993C26 4.87557 26 4.85681 25.8736 4.6067C25.7412 4.32533 25.3801 4.11274 25.0671 4.11899C24.9708 4.12524 23.2495 4.65047 21.2454 5.29451ZM24.1824 20.8263L24.1644 25.6535L18.8079 23.9527V8.03321L24.1644 6.33246L24.1824 11.1596C24.1884 13.817 24.1884 18.1689 24.1824 20.8263Z" fill="white"/>
<path d="M12.5667 0.11723C12.4282 0.192263 12.2898 0.336076 12.2176 0.486142C12.1032 0.717493 12.0972 0.848801 12.0972 3.1123C12.0972 5.37579 12.1032 5.5071 12.2176 5.73845C12.356 6.01983 12.6991 6.23867 13 6.23867C13.3009 6.23867 13.644 6.01983 13.7824 5.73845C13.8968 5.5071 13.9028 5.37579 13.9028 3.1123C13.9028 0.848801 13.8968 0.717493 13.7824 0.486142C13.5597 0.029691 13.0181 -0.13288 12.5667 0.11723Z" fill="white"/>
<path d="M12.5667 8.68349C12.4282 8.75853 12.2898 8.90234 12.2176 9.05241C12.1032 9.28376 12.0972 9.41507 12.0972 11.6786C12.0972 13.9421 12.1032 14.0734 12.2176 14.3047C12.356 14.5861 12.6991 14.8049 13 14.8049C13.3009 14.8049 13.644 14.5861 13.7824 14.3047C13.8968 14.0734 13.9028 13.9421 13.9028 11.6786C13.9028 9.41507 13.8968 9.28376 13.7824 9.05241C13.5597 8.59596 13.0181 8.43338 12.5667 8.68349Z" fill="white"/>
<path d="M12.5667 17.3123C12.4282 17.3873 12.2898 17.5311 12.2176 17.6812C12.1032 17.9126 12.0972 18.0439 12.0972 20.3074C12.0972 22.5709 12.1032 22.7022 12.2176 22.9335C12.356 23.2149 12.6991 23.4337 13 23.4337C13.3009 23.4337 13.644 23.2149 13.7824 22.9335C13.8968 22.7022 13.9028 22.5709 13.9028 20.3074C13.9028 18.0439 13.8968 17.9126 13.7824 17.6812C13.5597 17.2248 13.0181 17.0622 12.5667 17.3123Z" fill="white"/>
<path d="M12.5667 25.8786C12.4282 25.9536 12.2898 26.0974 12.2176 26.2475C12.1032 26.4788 12.0972 26.6101 12.0972 28.8736C12.0972 31.1371 12.1032 31.2684 12.2176 31.4998C12.356 31.7812 12.6991 32 13 32C13.3009 32 13.644 31.7812 13.7824 31.4998C13.8968 31.2684 13.9028 31.1371 13.9028 28.8736C13.9028 26.6101 13.8968 26.4788 13.7824 26.2475C13.5597 25.791 13.0181 25.6284 12.5667 25.8786Z" fill="white"/>
</svg>
